<mxfile host="app.diagrams.net" modified="2023-11-23T13:16:45.289Z" agent="Mozilla/5.0 (Windows NT 10.0; Win64; x64) AppleWebKit/537.36 (KHTML, like Gecko) Chrome/119.0.0.0 Safari/537.36" etag="V4wOJnb-NG0XK_RPnLID" version="22.1.3" type="github">
  <diagram id="wFE0QG_FPsp0jaGvCLVb" name="Page-1">
    <mxGraphModel dx="1235" dy="666" grid="1" gridSize="10" guides="1" tooltips="1" connect="1" arrows="1" fold="1" page="1" pageScale="1" pageWidth="850" pageHeight="1100" math="0" shadow="0">
      <root>
        <mxCell id="0" />
        <mxCell id="1" parent="0" />
        <mxCell id="zqyr1evyY5kLlcFFN8B--1" value="" style="rounded=0;html=1;jettySize=auto;orthogonalLoop=1;fontSize=11;endArrow=classic;endFill=1;endSize=8;strokeWidth=1;shadow=0;labelBackgroundColor=default;edgeStyle=orthogonalEdgeStyle;" edge="1" parent="1" source="zqyr1evyY5kLlcFFN8B--2" target="zqyr1evyY5kLlcFFN8B--18">
          <mxGeometry relative="1" as="geometry" />
        </mxCell>
        <mxCell id="zqyr1evyY5kLlcFFN8B--2" value="Speicher-Block bauen" style="rounded=1;whiteSpace=wrap;html=1;fontSize=12;glass=0;strokeWidth=1;shadow=0;fontColor=#ffffff;fillColor=#234f7c;" vertex="1" parent="1">
          <mxGeometry x="160" y="103" width="120" height="40" as="geometry" />
        </mxCell>
        <mxCell id="zqyr1evyY5kLlcFFN8B--3" value="[Programm-Item eingelegt]" style="rounded=0;html=1;jettySize=auto;orthogonalLoop=1;fontSize=11;endArrow=classic;endFill=1;endSize=8;strokeWidth=1;shadow=0;labelBackgroundColor=default;edgeStyle=orthogonalEdgeStyle;" edge="1" parent="1" source="zqyr1evyY5kLlcFFN8B--5" target="zqyr1evyY5kLlcFFN8B--12">
          <mxGeometry x="-0.1209" relative="1" as="geometry">
            <mxPoint as="offset" />
          </mxGeometry>
        </mxCell>
        <mxCell id="zqyr1evyY5kLlcFFN8B--4" value="[kein Programm-&lt;br&gt;Item eingelegt]" style="edgeStyle=orthogonalEdgeStyle;rounded=0;html=1;jettySize=auto;orthogonalLoop=1;fontSize=11;endArrow=classic;endFill=1;endSize=8;strokeWidth=1;shadow=0;labelBackgroundColor=default;" edge="1" parent="1" source="zqyr1evyY5kLlcFFN8B--5" target="zqyr1evyY5kLlcFFN8B--8">
          <mxGeometry x="0.02" y="28" relative="1" as="geometry">
            <mxPoint as="offset" />
            <mxPoint x="292" y="540" as="sourcePoint" />
            <mxPoint x="367" y="540" as="targetPoint" />
          </mxGeometry>
        </mxCell>
        <mxCell id="zqyr1evyY5kLlcFFN8B--5" value="" style="rhombus;whiteSpace=wrap;html=1;shadow=0;fontFamily=Helvetica;fontSize=12;align=center;strokeWidth=1;spacing=6;spacingTop=-4;" vertex="1" parent="1">
          <mxGeometry x="190" y="510" width="60" height="60" as="geometry" />
        </mxCell>
        <mxCell id="zqyr1evyY5kLlcFFN8B--7" style="edgeStyle=orthogonalEdgeStyle;rounded=0;orthogonalLoop=1;jettySize=auto;html=1;" edge="1" parent="1" source="zqyr1evyY5kLlcFFN8B--41" target="zqyr1evyY5kLlcFFN8B--23">
          <mxGeometry relative="1" as="geometry">
            <Array as="points">
              <mxPoint x="620" y="323" />
            </Array>
          </mxGeometry>
        </mxCell>
        <mxCell id="zqyr1evyY5kLlcFFN8B--8" value="Programm-Item einlegen" style="rounded=1;whiteSpace=wrap;html=1;fontSize=12;glass=0;strokeWidth=1;shadow=0;fontColor=#ffffff;fillColor=#234F7C;" vertex="1" parent="1">
          <mxGeometry x="370" y="520" width="120" height="40" as="geometry" />
        </mxCell>
        <mxCell id="zqyr1evyY5kLlcFFN8B--9" value="[anderes &lt;br&gt;Programm]" style="rounded=0;html=1;jettySize=auto;orthogonalLoop=1;fontSize=11;endArrow=classic;endFill=1;endSize=8;strokeWidth=1;shadow=0;labelBackgroundColor=default;edgeStyle=orthogonalEdgeStyle;" edge="1" parent="1" source="zqyr1evyY5kLlcFFN8B--12" target="zqyr1evyY5kLlcFFN8B--14">
          <mxGeometry x="-0.0667" y="18" relative="1" as="geometry">
            <mxPoint as="offset" />
          </mxGeometry>
        </mxCell>
        <mxCell id="zqyr1evyY5kLlcFFN8B--10" style="edgeStyle=orthogonalEdgeStyle;rounded=0;orthogonalLoop=1;jettySize=auto;html=1;" edge="1" parent="1" source="zqyr1evyY5kLlcFFN8B--12" target="zqyr1evyY5kLlcFFN8B--38">
          <mxGeometry relative="1" as="geometry">
            <mxPoint x="220" y="763.5" as="targetPoint" />
            <Array as="points">
              <mxPoint x="220" y="710" />
              <mxPoint x="620" y="710" />
            </Array>
          </mxGeometry>
        </mxCell>
        <mxCell id="zqyr1evyY5kLlcFFN8B--11" value="[gewünschtes Programm]" style="edgeLabel;html=1;align=center;verticalAlign=middle;resizable=0;points=[];" vertex="1" connectable="0" parent="zqyr1evyY5kLlcFFN8B--10">
          <mxGeometry x="-0.1468" y="2" relative="1" as="geometry">
            <mxPoint as="offset" />
          </mxGeometry>
        </mxCell>
        <mxCell id="zqyr1evyY5kLlcFFN8B--12" value="" style="rhombus;whiteSpace=wrap;html=1;shadow=0;fontFamily=Helvetica;fontSize=12;align=center;strokeWidth=1;spacing=6;spacingTop=-4;" vertex="1" parent="1">
          <mxGeometry x="190" y="628" width="60" height="60" as="geometry" />
        </mxCell>
        <mxCell id="zqyr1evyY5kLlcFFN8B--13" style="edgeStyle=orthogonalEdgeStyle;rounded=0;orthogonalLoop=1;jettySize=auto;html=1;" edge="1" parent="1" source="zqyr1evyY5kLlcFFN8B--14" target="zqyr1evyY5kLlcFFN8B--8">
          <mxGeometry relative="1" as="geometry" />
        </mxCell>
        <mxCell id="zqyr1evyY5kLlcFFN8B--14" value="Aktuelles Programm-Item herausnehmen" style="rounded=1;whiteSpace=wrap;html=1;fontSize=12;glass=0;strokeWidth=1;shadow=0;fontColor=#ffffff;fillColor=#234F7C;" vertex="1" parent="1">
          <mxGeometry x="370" y="633" width="120" height="50" as="geometry" />
        </mxCell>
        <mxCell id="zqyr1evyY5kLlcFFN8B--15" style="edgeStyle=orthogonalEdgeStyle;rounded=0;orthogonalLoop=1;jettySize=auto;html=1;" edge="1" parent="1" source="zqyr1evyY5kLlcFFN8B--16" target="zqyr1evyY5kLlcFFN8B--2">
          <mxGeometry relative="1" as="geometry" />
        </mxCell>
        <mxCell id="zqyr1evyY5kLlcFFN8B--16" value="" style="ellipse;fillColor=strokeColor;html=1;" vertex="1" parent="1">
          <mxGeometry x="205" y="13" width="30" height="30" as="geometry" />
        </mxCell>
        <mxCell id="zqyr1evyY5kLlcFFN8B--17" style="edgeStyle=orthogonalEdgeStyle;rounded=0;orthogonalLoop=1;jettySize=auto;html=1;" edge="1" parent="1" source="zqyr1evyY5kLlcFFN8B--18" target="zqyr1evyY5kLlcFFN8B--21">
          <mxGeometry relative="1" as="geometry">
            <Array as="points">
              <mxPoint x="220" y="273" />
              <mxPoint x="220" y="273" />
            </Array>
          </mxGeometry>
        </mxCell>
        <mxCell id="zqyr1evyY5kLlcFFN8B--18" value="Speicher-Block über Bus an Lerncomputer anbinden" style="rounded=1;whiteSpace=wrap;html=1;fontSize=12;glass=0;strokeWidth=1;shadow=0;fontColor=#ffffff;fillColor=#234f7c;" vertex="1" parent="1">
          <mxGeometry x="160" y="183" width="120" height="70" as="geometry" />
        </mxCell>
        <mxCell id="zqyr1evyY5kLlcFFN8B--19" style="edgeStyle=orthogonalEdgeStyle;rounded=0;orthogonalLoop=1;jettySize=auto;html=1;" edge="1" parent="1" source="zqyr1evyY5kLlcFFN8B--21" target="zqyr1evyY5kLlcFFN8B--5">
          <mxGeometry relative="1" as="geometry" />
        </mxCell>
        <mxCell id="zqyr1evyY5kLlcFFN8B--20" style="edgeStyle=orthogonalEdgeStyle;rounded=0;orthogonalLoop=1;jettySize=auto;html=1;" edge="1" parent="1" source="zqyr1evyY5kLlcFFN8B--21" target="zqyr1evyY5kLlcFFN8B--41">
          <mxGeometry relative="1" as="geometry" />
        </mxCell>
        <mxCell id="zqyr1evyY5kLlcFFN8B--21" value="GUI öffnen" style="rounded=1;whiteSpace=wrap;html=1;fontSize=12;glass=0;strokeWidth=1;shadow=0;fillColor=#234F7C;fontColor=#ffffff;" vertex="1" parent="1">
          <mxGeometry x="160" y="303" width="120" height="40" as="geometry" />
        </mxCell>
        <mxCell id="zqyr1evyY5kLlcFFN8B--22" style="edgeStyle=orthogonalEdgeStyle;rounded=0;orthogonalLoop=1;jettySize=auto;html=1;" edge="1" parent="1" source="zqyr1evyY5kLlcFFN8B--23" target="zqyr1evyY5kLlcFFN8B--39">
          <mxGeometry relative="1" as="geometry" />
        </mxCell>
        <mxCell id="zqyr1evyY5kLlcFFN8B--23" value="GUI schließen" style="rounded=1;whiteSpace=wrap;html=1;fontSize=12;glass=0;strokeWidth=1;shadow=0;fillColor=#234F7C;fontColor=#ffffff;" vertex="1" parent="1">
          <mxGeometry x="560" y="198" width="120" height="40" as="geometry" />
        </mxCell>
        <mxCell id="zqyr1evyY5kLlcFFN8B--37" value="" style="edgeStyle=orthogonalEdgeStyle;rounded=0;orthogonalLoop=1;jettySize=auto;html=1;" edge="1" parent="1" source="zqyr1evyY5kLlcFFN8B--8" target="zqyr1evyY5kLlcFFN8B--38">
          <mxGeometry relative="1" as="geometry">
            <mxPoint x="490" y="540.5" as="sourcePoint" />
            <mxPoint x="220" y="772.5" as="targetPoint" />
            <Array as="points" />
          </mxGeometry>
        </mxCell>
        <mxCell id="zqyr1evyY5kLlcFFN8B--48" style="edgeStyle=orthogonalEdgeStyle;rounded=0;orthogonalLoop=1;jettySize=auto;html=1;" edge="1" parent="1" source="zqyr1evyY5kLlcFFN8B--38" target="zqyr1evyY5kLlcFFN8B--41">
          <mxGeometry relative="1" as="geometry">
            <mxPoint x="740.0588235294117" y="469.9411764705883" as="targetPoint" />
            <Array as="points">
              <mxPoint x="770" y="540" />
              <mxPoint x="770" y="323" />
            </Array>
          </mxGeometry>
        </mxCell>
        <mxCell id="zqyr1evyY5kLlcFFN8B--51" value="[kein Interesse am&lt;br&gt;&amp;nbsp;Speicherinhalt]" style="edgeLabel;html=1;align=center;verticalAlign=middle;resizable=0;points=[];" vertex="1" connectable="0" parent="zqyr1evyY5kLlcFFN8B--48">
          <mxGeometry x="-0.2295" relative="1" as="geometry">
            <mxPoint y="-4" as="offset" />
          </mxGeometry>
        </mxCell>
        <mxCell id="zqyr1evyY5kLlcFFN8B--49" style="edgeStyle=orthogonalEdgeStyle;rounded=0;orthogonalLoop=1;jettySize=auto;html=1;" edge="1" parent="1" source="zqyr1evyY5kLlcFFN8B--38" target="zqyr1evyY5kLlcFFN8B--43">
          <mxGeometry relative="1" as="geometry" />
        </mxCell>
        <mxCell id="zqyr1evyY5kLlcFFN8B--52" value="[Interesse am Speicherinhalt]" style="edgeLabel;html=1;align=center;verticalAlign=middle;resizable=0;points=[];" vertex="1" connectable="0" parent="zqyr1evyY5kLlcFFN8B--49">
          <mxGeometry x="0.1165" y="6" relative="1" as="geometry">
            <mxPoint x="6" y="9" as="offset" />
          </mxGeometry>
        </mxCell>
        <mxCell id="zqyr1evyY5kLlcFFN8B--38" value="" style="rhombus;whiteSpace=wrap;html=1;shadow=0;fontFamily=Helvetica;fontSize=12;align=center;strokeWidth=1;spacing=6;spacingTop=-4;" vertex="1" parent="1">
          <mxGeometry x="590" y="510" width="60" height="60" as="geometry" />
        </mxCell>
        <mxCell id="zqyr1evyY5kLlcFFN8B--39" value="" style="ellipse;html=1;shape=endState;fillColor=strokeColor;" vertex="1" parent="1">
          <mxGeometry x="605" y="130" width="30" height="30" as="geometry" />
        </mxCell>
        <mxCell id="zqyr1evyY5kLlcFFN8B--41" value="" style="rhombus;whiteSpace=wrap;html=1;shadow=0;fontFamily=Helvetica;fontSize=12;align=center;strokeWidth=1;spacing=6;spacingTop=-4;" vertex="1" parent="1">
          <mxGeometry x="590" y="293" width="60" height="60" as="geometry" />
        </mxCell>
        <mxCell id="zqyr1evyY5kLlcFFN8B--46" style="edgeStyle=orthogonalEdgeStyle;rounded=0;orthogonalLoop=1;jettySize=auto;html=1;" edge="1" parent="1" source="zqyr1evyY5kLlcFFN8B--43" target="zqyr1evyY5kLlcFFN8B--41">
          <mxGeometry relative="1" as="geometry" />
        </mxCell>
        <mxCell id="zqyr1evyY5kLlcFFN8B--43" value="Speicherinhalt inspizieren" style="rounded=1;whiteSpace=wrap;html=1;fontSize=12;glass=0;strokeWidth=1;shadow=0;fillColor=#0e6e7c;fontColor=#ffffff;" vertex="1" parent="1">
          <mxGeometry x="560" y="400" width="120" height="40" as="geometry" />
        </mxCell>
      </root>
    </mxGraphModel>
  </diagram>
</mxfile>
